<mxfile host="app.diagrams.net" agent="Mozilla/5.0 (Windows NT 10.0; Win64; x64) AppleWebKit/537.36 (KHTML, like Gecko) Chrome/134.0.0.0 Safari/537.36" version="26.2.8">
  <diagram name="Page-1" id="nb4Nz53QhCpKhdht977x">
    <mxGraphModel dx="720" dy="363" grid="1" gridSize="10" guides="1" tooltips="1" connect="1" arrows="1" fold="1" page="1" pageScale="1" pageWidth="850" pageHeight="1100" math="0" shadow="0">
      <root>
        <mxCell id="0" />
        <mxCell id="1" parent="0" />
        <mxCell id="vAraQ23SvQjwQGzPWNUu-5" style="edgeStyle=orthogonalEdgeStyle;rounded=0;orthogonalLoop=1;jettySize=auto;html=1;entryX=0;entryY=0.5;entryDx=0;entryDy=0;" parent="1" source="vAraQ23SvQjwQGzPWNUu-1" target="vAraQ23SvQjwQGzPWNUu-3" edge="1">
          <mxGeometry relative="1" as="geometry" />
        </mxCell>
        <mxCell id="vAraQ23SvQjwQGzPWNUu-1" value="React App(Buyer &amp;amp; Seller UI)" style="rounded=0;whiteSpace=wrap;html=1;" parent="1" vertex="1">
          <mxGeometry x="50" y="280" width="120" height="60" as="geometry" />
        </mxCell>
        <mxCell id="vAraQ23SvQjwQGzPWNUu-4" style="edgeStyle=orthogonalEdgeStyle;rounded=0;orthogonalLoop=1;jettySize=auto;html=1;entryX=0.5;entryY=1;entryDx=0;entryDy=0;" parent="1" source="vAraQ23SvQjwQGzPWNUu-2" target="vAraQ23SvQjwQGzPWNUu-1" edge="1">
          <mxGeometry relative="1" as="geometry" />
        </mxCell>
        <mxCell id="vAraQ23SvQjwQGzPWNUu-2" value="Client" style="rounded=0;whiteSpace=wrap;html=1;" parent="1" vertex="1">
          <mxGeometry x="50" y="440" width="120" height="60" as="geometry" />
        </mxCell>
        <mxCell id="j8j3YL9cSsE1ejrsSzUw-4" style="edgeStyle=orthogonalEdgeStyle;rounded=0;orthogonalLoop=1;jettySize=auto;html=1;" edge="1" parent="1" source="vAraQ23SvQjwQGzPWNUu-3" target="j8j3YL9cSsE1ejrsSzUw-1">
          <mxGeometry relative="1" as="geometry" />
        </mxCell>
        <mxCell id="vAraQ23SvQjwQGzPWNUu-3" value="&lt;b&gt;API GATEWAY&lt;br&gt;(GraphQL)&lt;/b&gt;" style="rounded=0;whiteSpace=wrap;html=1;" parent="1" vertex="1">
          <mxGeometry x="240" y="275" width="120" height="70" as="geometry" />
        </mxCell>
        <mxCell id="vAraQ23SvQjwQGzPWNUu-25" style="edgeStyle=orthogonalEdgeStyle;rounded=0;orthogonalLoop=1;jettySize=auto;html=1;entryX=0;entryY=0.5;entryDx=0;entryDy=0;" parent="1" source="vAraQ23SvQjwQGzPWNUu-6" target="vAraQ23SvQjwQGzPWNUu-11" edge="1">
          <mxGeometry relative="1" as="geometry" />
        </mxCell>
        <mxCell id="vAraQ23SvQjwQGzPWNUu-6" value="Auth Service" style="rounded=0;whiteSpace=wrap;html=1;" parent="1" vertex="1">
          <mxGeometry x="905" y="40" width="120" height="60" as="geometry" />
        </mxCell>
        <mxCell id="vAraQ23SvQjwQGzPWNUu-24" style="edgeStyle=orthogonalEdgeStyle;rounded=0;orthogonalLoop=1;jettySize=auto;html=1;entryX=0;entryY=0.5;entryDx=0;entryDy=0;" parent="1" source="vAraQ23SvQjwQGzPWNUu-7" target="vAraQ23SvQjwQGzPWNUu-12" edge="1">
          <mxGeometry relative="1" as="geometry" />
        </mxCell>
        <mxCell id="vAraQ23SvQjwQGzPWNUu-7" value="Product Service" style="rounded=0;whiteSpace=wrap;html=1;" parent="1" vertex="1">
          <mxGeometry x="905" y="160" width="120" height="60" as="geometry" />
        </mxCell>
        <mxCell id="vAraQ23SvQjwQGzPWNUu-23" style="edgeStyle=orthogonalEdgeStyle;rounded=0;orthogonalLoop=1;jettySize=auto;html=1;entryX=0;entryY=0.5;entryDx=0;entryDy=0;" parent="1" source="vAraQ23SvQjwQGzPWNUu-8" target="vAraQ23SvQjwQGzPWNUu-13" edge="1">
          <mxGeometry relative="1" as="geometry" />
        </mxCell>
        <mxCell id="vAraQ23SvQjwQGzPWNUu-8" value="Inventory Service" style="rounded=0;whiteSpace=wrap;html=1;" parent="1" vertex="1">
          <mxGeometry x="905" y="280" width="120" height="60" as="geometry" />
        </mxCell>
        <mxCell id="vAraQ23SvQjwQGzPWNUu-22" style="edgeStyle=orthogonalEdgeStyle;rounded=0;orthogonalLoop=1;jettySize=auto;html=1;" parent="1" source="vAraQ23SvQjwQGzPWNUu-9" target="vAraQ23SvQjwQGzPWNUu-14" edge="1">
          <mxGeometry relative="1" as="geometry" />
        </mxCell>
        <mxCell id="vAraQ23SvQjwQGzPWNUu-9" value="Order Service" style="rounded=0;whiteSpace=wrap;html=1;" parent="1" vertex="1">
          <mxGeometry x="905" y="400" width="120" height="60" as="geometry" />
        </mxCell>
        <mxCell id="vAraQ23SvQjwQGzPWNUu-21" style="edgeStyle=orthogonalEdgeStyle;rounded=0;orthogonalLoop=1;jettySize=auto;html=1;" parent="1" source="vAraQ23SvQjwQGzPWNUu-10" target="vAraQ23SvQjwQGzPWNUu-15" edge="1">
          <mxGeometry relative="1" as="geometry" />
        </mxCell>
        <mxCell id="vAraQ23SvQjwQGzPWNUu-10" value="Payment Service" style="rounded=0;whiteSpace=wrap;html=1;" parent="1" vertex="1">
          <mxGeometry x="905" y="520" width="120" height="60" as="geometry" />
        </mxCell>
        <mxCell id="vAraQ23SvQjwQGzPWNUu-11" value="Auth DB" style="rounded=0;whiteSpace=wrap;html=1;" parent="1" vertex="1">
          <mxGeometry x="1145" y="40" width="120" height="60" as="geometry" />
        </mxCell>
        <mxCell id="vAraQ23SvQjwQGzPWNUu-12" value="Product DB" style="rounded=0;whiteSpace=wrap;html=1;" parent="1" vertex="1">
          <mxGeometry x="1145" y="160" width="120" height="60" as="geometry" />
        </mxCell>
        <mxCell id="vAraQ23SvQjwQGzPWNUu-13" value="Inventory DB" style="rounded=0;whiteSpace=wrap;html=1;" parent="1" vertex="1">
          <mxGeometry x="1145" y="280" width="120" height="60" as="geometry" />
        </mxCell>
        <mxCell id="vAraQ23SvQjwQGzPWNUu-14" value="Order DB" style="rounded=0;whiteSpace=wrap;html=1;" parent="1" vertex="1">
          <mxGeometry x="1145" y="400" width="120" height="60" as="geometry" />
        </mxCell>
        <mxCell id="vAraQ23SvQjwQGzPWNUu-15" value="Payment DB" style="rounded=0;whiteSpace=wrap;html=1;" parent="1" vertex="1">
          <mxGeometry x="1145" y="520" width="120" height="60" as="geometry" />
        </mxCell>
        <mxCell id="vAraQ23SvQjwQGzPWNUu-42" value="" style="image;sketch=0;aspect=fixed;html=1;points=[];align=center;fontSize=12;image=img/lib/mscae/Azure_Database_for_PostgreSQL_servers.svg;" parent="1" vertex="1">
          <mxGeometry x="1285" y="45" width="38" height="50" as="geometry" />
        </mxCell>
        <mxCell id="vAraQ23SvQjwQGzPWNUu-43" value="" style="image;sketch=0;aspect=fixed;html=1;points=[];align=center;fontSize=12;image=img/lib/mscae/Azure_Database_for_PostgreSQL_servers.svg;" parent="1" vertex="1">
          <mxGeometry x="1285" y="165" width="38" height="50" as="geometry" />
        </mxCell>
        <mxCell id="vAraQ23SvQjwQGzPWNUu-44" value="" style="image;sketch=0;aspect=fixed;html=1;points=[];align=center;fontSize=12;image=img/lib/mscae/Azure_Database_for_PostgreSQL_servers.svg;" parent="1" vertex="1">
          <mxGeometry x="1285" y="285" width="38" height="50" as="geometry" />
        </mxCell>
        <mxCell id="vAraQ23SvQjwQGzPWNUu-45" value="" style="image;sketch=0;aspect=fixed;html=1;points=[];align=center;fontSize=12;image=img/lib/mscae/Azure_Database_for_PostgreSQL_servers.svg;" parent="1" vertex="1">
          <mxGeometry x="1285" y="405" width="38" height="50" as="geometry" />
        </mxCell>
        <mxCell id="vAraQ23SvQjwQGzPWNUu-46" value="" style="image;sketch=0;aspect=fixed;html=1;points=[];align=center;fontSize=12;image=img/lib/mscae/Azure_Database_for_PostgreSQL_servers.svg;" parent="1" vertex="1">
          <mxGeometry x="1285" y="525" width="38" height="50" as="geometry" />
        </mxCell>
        <mxCell id="j8j3YL9cSsE1ejrsSzUw-12" style="edgeStyle=orthogonalEdgeStyle;rounded=0;orthogonalLoop=1;jettySize=auto;html=1;entryX=0;entryY=0.5;entryDx=0;entryDy=0;" edge="1" parent="1" source="j8j3YL9cSsE1ejrsSzUw-1" target="j8j3YL9cSsE1ejrsSzUw-11">
          <mxGeometry relative="1" as="geometry" />
        </mxCell>
        <mxCell id="j8j3YL9cSsE1ejrsSzUw-1" value="&lt;b&gt;Hasura&lt;/b&gt;" style="rounded=0;whiteSpace=wrap;html=1;" vertex="1" parent="1">
          <mxGeometry x="420" y="280" width="120" height="60" as="geometry" />
        </mxCell>
        <mxCell id="j8j3YL9cSsE1ejrsSzUw-11" value="&lt;b&gt;RabbitMQ&lt;/b&gt;" style="rounded=0;whiteSpace=wrap;html=1;" vertex="1" parent="1">
          <mxGeometry x="590" y="280" width="120" height="60" as="geometry" />
        </mxCell>
        <mxCell id="j8j3YL9cSsE1ejrsSzUw-13" value="" style="endArrow=classic;startArrow=classic;html=1;rounded=0;exitX=1;exitY=0.5;exitDx=0;exitDy=0;entryX=0;entryY=0.5;entryDx=0;entryDy=0;edgeStyle=orthogonalEdgeStyle;" edge="1" parent="1" source="j8j3YL9cSsE1ejrsSzUw-11" target="vAraQ23SvQjwQGzPWNUu-6">
          <mxGeometry width="50" height="50" relative="1" as="geometry">
            <mxPoint x="650" y="290" as="sourcePoint" />
            <mxPoint x="700" y="240" as="targetPoint" />
            <Array as="points">
              <mxPoint x="850" y="310" />
              <mxPoint x="850" y="70" />
            </Array>
          </mxGeometry>
        </mxCell>
        <mxCell id="j8j3YL9cSsE1ejrsSzUw-14" value="" style="endArrow=classic;startArrow=classic;html=1;rounded=0;exitX=1;exitY=0.5;exitDx=0;exitDy=0;entryX=0;entryY=0.5;entryDx=0;entryDy=0;edgeStyle=orthogonalEdgeStyle;" edge="1" parent="1" source="j8j3YL9cSsE1ejrsSzUw-11" target="vAraQ23SvQjwQGzPWNUu-7">
          <mxGeometry width="50" height="50" relative="1" as="geometry">
            <mxPoint x="780" y="410" as="sourcePoint" />
            <mxPoint x="830" y="360" as="targetPoint" />
            <Array as="points">
              <mxPoint x="850" y="310" />
              <mxPoint x="850" y="190" />
            </Array>
          </mxGeometry>
        </mxCell>
        <mxCell id="j8j3YL9cSsE1ejrsSzUw-15" value="" style="endArrow=classic;startArrow=classic;html=1;rounded=0;entryX=0;entryY=0.5;entryDx=0;entryDy=0;exitX=1;exitY=0.5;exitDx=0;exitDy=0;edgeStyle=orthogonalEdgeStyle;" edge="1" parent="1" source="j8j3YL9cSsE1ejrsSzUw-11" target="vAraQ23SvQjwQGzPWNUu-9">
          <mxGeometry width="50" height="50" relative="1" as="geometry">
            <mxPoint x="780" y="360" as="sourcePoint" />
            <mxPoint x="850.7106781186548" y="310" as="targetPoint" />
            <Array as="points">
              <mxPoint x="850" y="310" />
              <mxPoint x="850" y="430" />
            </Array>
          </mxGeometry>
        </mxCell>
        <mxCell id="j8j3YL9cSsE1ejrsSzUw-16" value="" style="endArrow=classic;startArrow=classic;html=1;rounded=0;entryX=0;entryY=0.5;entryDx=0;entryDy=0;exitX=1;exitY=0.5;exitDx=0;exitDy=0;edgeStyle=orthogonalEdgeStyle;" edge="1" parent="1" source="j8j3YL9cSsE1ejrsSzUw-11" target="vAraQ23SvQjwQGzPWNUu-10">
          <mxGeometry width="50" height="50" relative="1" as="geometry">
            <mxPoint x="700" y="520" as="sourcePoint" />
            <mxPoint x="750" y="470" as="targetPoint" />
            <Array as="points">
              <mxPoint x="850" y="310" />
              <mxPoint x="850" y="550" />
            </Array>
          </mxGeometry>
        </mxCell>
        <mxCell id="j8j3YL9cSsE1ejrsSzUw-17" value="Asynchronous Events" style="edgeLabel;html=1;align=center;verticalAlign=middle;resizable=0;points=[];" vertex="1" connectable="0" parent="j8j3YL9cSsE1ejrsSzUw-16">
          <mxGeometry x="-0.7487" y="-1" relative="1" as="geometry">
            <mxPoint x="25" y="-11" as="offset" />
          </mxGeometry>
        </mxCell>
        <mxCell id="j8j3YL9cSsE1ejrsSzUw-18" value="" style="endArrow=classic;startArrow=classic;html=1;rounded=0;exitX=1;exitY=0.5;exitDx=0;exitDy=0;" edge="1" parent="1" source="j8j3YL9cSsE1ejrsSzUw-11" target="vAraQ23SvQjwQGzPWNUu-8">
          <mxGeometry width="50" height="50" relative="1" as="geometry">
            <mxPoint x="700" y="420" as="sourcePoint" />
            <mxPoint x="750" y="370" as="targetPoint" />
          </mxGeometry>
        </mxCell>
        <mxCell id="j8j3YL9cSsE1ejrsSzUw-20" value="" style="endArrow=classic;startArrow=classic;html=1;rounded=0;entryX=0.5;entryY=1;entryDx=0;entryDy=0;exitX=0.5;exitY=0;exitDx=0;exitDy=0;" edge="1" parent="1" source="vAraQ23SvQjwQGzPWNUu-7" target="vAraQ23SvQjwQGzPWNUu-6">
          <mxGeometry width="50" height="50" relative="1" as="geometry">
            <mxPoint x="900" y="160" as="sourcePoint" />
            <mxPoint x="950" y="110" as="targetPoint" />
          </mxGeometry>
        </mxCell>
        <mxCell id="j8j3YL9cSsE1ejrsSzUw-25" value="gRPC" style="edgeLabel;html=1;align=center;verticalAlign=middle;resizable=0;points=[];" vertex="1" connectable="0" parent="j8j3YL9cSsE1ejrsSzUw-20">
          <mxGeometry x="0.0977" y="1" relative="1" as="geometry">
            <mxPoint as="offset" />
          </mxGeometry>
        </mxCell>
        <mxCell id="j8j3YL9cSsE1ejrsSzUw-21" value="" style="endArrow=classic;startArrow=classic;html=1;rounded=0;entryX=0.5;entryY=1;entryDx=0;entryDy=0;exitX=0.5;exitY=0;exitDx=0;exitDy=0;" edge="1" parent="1">
          <mxGeometry width="50" height="50" relative="1" as="geometry">
            <mxPoint x="964.71" y="280" as="sourcePoint" />
            <mxPoint x="964.71" y="220" as="targetPoint" />
          </mxGeometry>
        </mxCell>
        <mxCell id="j8j3YL9cSsE1ejrsSzUw-26" value="gRPC" style="edgeLabel;html=1;align=center;verticalAlign=middle;resizable=0;points=[];" vertex="1" connectable="0" parent="j8j3YL9cSsE1ejrsSzUw-21">
          <mxGeometry x="0.0517" y="1" relative="1" as="geometry">
            <mxPoint as="offset" />
          </mxGeometry>
        </mxCell>
        <mxCell id="j8j3YL9cSsE1ejrsSzUw-22" value="" style="endArrow=classic;startArrow=classic;html=1;rounded=0;entryX=0.5;entryY=1;entryDx=0;entryDy=0;exitX=0.5;exitY=0;exitDx=0;exitDy=0;" edge="1" parent="1">
          <mxGeometry width="50" height="50" relative="1" as="geometry">
            <mxPoint x="964.71" y="400" as="sourcePoint" />
            <mxPoint x="964.71" y="340" as="targetPoint" />
          </mxGeometry>
        </mxCell>
        <mxCell id="j8j3YL9cSsE1ejrsSzUw-27" value="gRPC" style="edgeLabel;html=1;align=center;verticalAlign=middle;resizable=0;points=[];" vertex="1" connectable="0" parent="j8j3YL9cSsE1ejrsSzUw-22">
          <mxGeometry x="0.0057" y="1" relative="1" as="geometry">
            <mxPoint as="offset" />
          </mxGeometry>
        </mxCell>
        <mxCell id="j8j3YL9cSsE1ejrsSzUw-24" value="" style="endArrow=classic;startArrow=classic;html=1;rounded=0;entryX=0.5;entryY=1;entryDx=0;entryDy=0;exitX=0.5;exitY=0;exitDx=0;exitDy=0;" edge="1" parent="1">
          <mxGeometry width="50" height="50" relative="1" as="geometry">
            <mxPoint x="964.6600000000001" y="520" as="sourcePoint" />
            <mxPoint x="964.6600000000001" y="460" as="targetPoint" />
          </mxGeometry>
        </mxCell>
        <mxCell id="j8j3YL9cSsE1ejrsSzUw-28" value="gRPC" style="edgeLabel;html=1;align=center;verticalAlign=middle;resizable=0;points=[];" vertex="1" connectable="0" parent="j8j3YL9cSsE1ejrsSzUw-24">
          <mxGeometry x="0.0977" y="2" relative="1" as="geometry">
            <mxPoint as="offset" />
          </mxGeometry>
        </mxCell>
      </root>
    </mxGraphModel>
  </diagram>
</mxfile>
